<svg width="40" height="40" viewBox="0 0 40 40" fill="none" xmlns="http://www.w3.org/2000/svg">
  <path id="Schmuckelement" fill-rule="evenodd" clip-rule="evenodd" d="M19 0C29.4864 0 38 8.51364 38 19C38 29.4864 29.4864 38 19 38C8.51362 38 0 29.4864 0 19C0 8.51364 8.51362 0 19 0ZM34.5071 25.8664H32.6875L27.2654 14.4524L21.8066 25.8664H19.987L26.5302 12.1365H27.9455L34.5071 25.8664ZM18.013 12.135H16.1934L10.7713 23.549L5.31247 12.135H3.49285L10.0361 25.8649H11.4514L18.013 12.135ZM22.8885 12.135H21.4735L14.9116 25.8649H16.3268L22.8885 12.135Z" fill="#E1E5E8"/>
</svg>
